<svg width="399" height="173" viewBox="0 0 399 173" fill="none" xmlns="http://www.w3.org/2000/svg">
<path d="M0.5 126H398.5" stroke="#85AFB5" stroke-dasharray="8 8"/>
<path d="M0.5 106H398.5" stroke="#87C3DA" stroke-width="2"/>
<path d="M0.5 151H398.5" stroke="#A7306F" stroke-width="2"/>
<path d="M0.5 40H398.5" stroke="#85AFB5" stroke-dasharray="8 8"/>
<path d="M0.5 20H398.5" stroke="#87C3DA" stroke-width="2"/>
<path d="M0.5 65H398.5" stroke="#A7306F" stroke-width="2"/>
<path d="M17.472 65.72C16.064 65.72 15.36 65.272 15.36 64.376V23.864H2.16C1.68 23.864 1.328 23.72 1.104 23.432C0.912 23.144 0.816 22.648 0.816 21.944C0.816 21.208 0.912 20.712 1.104 20.456C1.328 20.168 1.68 20.024 2.16 20.024H32.832C33.312 20.024 33.648 20.168 33.84 20.456C34.032 20.712 34.128 21.208 34.128 21.944C34.128 22.648 34.032 23.144 33.84 23.432C33.648 23.72 33.312 23.864 32.832 23.864H19.584V64.376C19.584 64.824 19.408 65.16 19.056 65.384C18.704 65.608 18.176 65.72 17.472 65.72ZM62.5699 65.816C61.4819 65.816 60.5379 65.656 59.7379 65.336C58.9379 65.048 58.2819 64.6 57.7699 63.992C57.2579 63.352 56.8739 62.568 56.6179 61.64C56.3939 60.68 56.2819 59.56 56.2819 58.28V49.352C56.2819 47.656 55.8979 46.328 55.1299 45.368C54.3939 44.408 53.1459 43.928 51.3859 43.928C50.7139 43.928 50.0259 44.024 49.3219 44.216C48.6179 44.408 47.9299 44.712 47.2579 45.128C46.5859 45.544 45.9619 46.104 45.3859 46.808C44.8099 47.48 44.2979 48.312 43.8499 49.304V64.472C43.8499 64.888 43.6739 65.192 43.3219 65.384C42.9699 65.608 42.4579 65.72 41.7859 65.72C41.0819 65.72 40.5539 65.608 40.2019 65.384C39.8819 65.192 39.7219 64.888 39.7219 64.472V20.504C39.7219 20.088 39.8819 19.784 40.2019 19.592C40.5539 19.368 41.0819 19.256 41.7859 19.256C42.4579 19.256 42.9699 19.368 43.3219 19.592C43.6739 19.784 43.8499 20.088 43.8499 20.504V44.6C44.2979 43.928 44.8099 43.32 45.3859 42.776C45.9939 42.2 46.6339 41.72 47.3059 41.336C48.0099 40.92 48.7459 40.616 49.5139 40.424C50.2819 40.2 51.0979 40.088 51.9619 40.088C53.6259 40.088 55.0819 40.392 56.3299 41C57.6099 41.608 58.6019 42.568 59.3059 43.88C60.0419 45.16 60.4099 46.856 60.4099 48.968V58.28C60.4099 59.72 60.6179 60.744 61.0339 61.352C61.4819 61.928 62.2979 62.216 63.4819 62.216C63.9299 62.216 64.2659 62.408 64.4899 62.792C64.7139 63.144 64.7939 63.56 64.7299 64.04C64.6979 64.488 64.5059 64.888 64.1539 65.24C63.8019 65.624 63.2739 65.816 62.5699 65.816ZM62.5875 65.816C62.1395 65.816 61.8195 65.624 61.6275 65.24C61.4035 64.888 61.3235 64.488 61.3875 64.04C61.4195 63.56 61.6115 63.144 61.9635 62.792C62.3155 62.408 62.8275 62.216 63.4995 62.216C64.1715 62.216 64.9555 62.056 65.8515 61.736C66.7155 61.384 67.6435 60.92 68.6355 60.344C69.6275 59.736 70.6195 59.048 71.6115 58.28C72.0275 57.928 72.4115 57.816 72.7635 57.944C73.1475 58.04 73.4515 58.264 73.6755 58.616C73.8995 58.968 73.9955 59.368 73.9635 59.816C73.9635 60.232 73.7715 60.584 73.3875 60.872C72.1395 61.832 70.8595 62.696 69.5475 63.464C68.2675 64.2 67.0355 64.776 65.8515 65.192C64.6355 65.608 63.5475 65.816 62.5875 65.816ZM80.0595 65.912C77.4995 65.912 75.4195 65.352 73.8195 64.232C72.2195 63.08 71.0515 61.512 70.3155 59.528C69.5795 57.544 69.2115 55.288 69.2115 52.76C69.2115 50.84 69.4675 49.112 69.9795 47.576C70.4915 46.008 71.2115 44.664 72.1395 43.544C73.0675 42.424 74.1555 41.576 75.4035 41C76.6835 40.392 78.0755 40.088 79.5795 40.088C80.8915 40.088 82.0275 40.36 82.9875 40.904C83.9795 41.448 84.7475 42.2 85.2915 43.16C85.8675 44.088 86.1555 45.144 86.1555 46.328C86.1555 47.288 85.9795 48.248 85.6275 49.208C85.2755 50.168 84.6835 51.176 83.8515 52.232C83.0195 53.288 81.8995 54.424 80.4915 55.64C79.0835 56.856 77.3395 58.2 75.2595 59.672L71.6595 58.328C73.6115 56.984 75.2435 55.768 76.5555 54.68C77.8675 53.592 78.9075 52.584 79.6755 51.656C80.4755 50.728 81.0515 49.848 81.4035 49.016C81.7555 48.184 81.9315 47.384 81.9315 46.616C81.9315 45.72 81.6755 45.048 81.1635 44.6C80.6515 44.152 79.9795 43.928 79.1475 43.928C78.3795 43.928 77.6435 44.152 76.9395 44.6C76.2675 45.016 75.6595 45.608 75.1155 46.376C74.6035 47.144 74.1875 48.056 73.8675 49.112C73.5795 50.168 73.4355 51.32 73.4355 52.568C73.4355 54.712 73.7235 56.488 74.2995 57.896C74.8755 59.304 75.6595 60.36 76.6515 61.064C77.6755 61.736 78.8115 62.072 80.0595 62.072C80.7955 62.072 81.4995 61.96 82.1715 61.736C82.8435 61.48 83.5155 61.112 84.1875 60.632C84.8915 60.12 85.5955 59.512 86.2995 58.808C86.7795 58.328 87.2115 58.088 87.5955 58.088C88.0115 58.088 88.4435 58.264 88.8915 58.616C89.3395 58.968 89.5955 59.352 89.6595 59.768C89.7555 60.152 89.6595 60.552 89.3715 60.968C88.5395 62.184 87.5475 63.16 86.3955 63.896C85.2755 64.6 84.1395 65.112 82.9875 65.432C81.8675 65.752 80.8915 65.912 80.0595 65.912ZM8.544 151C7.84 151 7.312 150.84 6.96 150.52C6.608 150.2 6.432 149.72 6.432 149.08V107.32C6.432 106.872 6.608 106.552 6.96 106.36C7.312 106.136 7.84 106.024 8.544 106.024H30.288C30.768 106.024 31.104 106.168 31.296 106.456C31.52 106.712 31.632 107.208 31.632 107.944C31.632 108.648 31.52 109.144 31.296 109.432C31.104 109.72 30.768 109.864 30.288 109.864H10.656V125.272H27.12C27.6 125.272 27.936 125.416 28.128 125.704C28.352 125.96 28.464 126.456 28.464 127.192C28.464 127.896 28.352 128.392 28.128 128.68C27.936 128.968 27.6 129.112 27.12 129.112H10.656V147.16H30.288C30.768 147.16 31.104 147.304 31.296 147.592C31.52 147.848 31.632 148.344 31.632 149.08C31.632 149.784 31.52 150.28 31.296 150.568C31.104 150.856 30.768 151 30.288 151H8.544ZM45.9934 151.816C44.1694 151.816 42.5534 151.384 41.1454 150.52C39.7374 149.624 38.6334 148.28 37.8334 146.488C37.0334 144.696 36.6334 142.44 36.6334 139.72C36.6334 138.056 36.7934 136.52 37.1134 135.112C37.4334 133.704 37.8974 132.44 38.5054 131.32C39.1134 130.2 39.8494 129.256 40.7134 128.488C41.6094 127.72 42.6334 127.128 43.7854 126.712C44.9374 126.296 46.2014 126.088 47.5774 126.088C48.5374 126.088 49.5454 126.232 50.6014 126.52C51.6894 126.808 52.7134 127.224 53.6734 127.768V106.504C53.6734 106.088 53.8494 105.784 54.2014 105.592C54.5534 105.368 55.0814 105.256 55.7854 105.256C56.4894 105.256 57.0014 105.368 57.3214 105.592C57.6414 105.784 57.8014 106.088 57.8014 106.504V144.52C57.8014 145.96 58.0254 146.936 58.4734 147.448C58.9534 147.96 59.8334 148.216 61.1134 148.216C61.4974 148.216 61.7854 148.408 61.9774 148.792C62.1694 149.144 62.2334 149.56 62.1694 150.04C62.1374 150.488 61.9614 150.888 61.6414 151.24C61.3214 151.624 60.8414 151.816 60.2014 151.816C59.3054 151.816 58.4894 151.72 57.7534 151.528C57.0494 151.368 56.4414 151.096 55.9294 150.712C55.4174 150.328 54.9854 149.864 54.6334 149.32C54.3134 148.744 54.0894 148.072 53.9614 147.304L53.9134 147.016C53.1774 148.296 52.3614 149.288 51.4654 149.992C50.5694 150.696 49.6574 151.176 48.7294 151.432C47.8014 151.688 46.8894 151.816 45.9934 151.816ZM46.6174 147.976C47.5454 147.976 48.4254 147.816 49.2574 147.496C50.0894 147.144 50.8734 146.616 51.6094 145.912C52.3774 145.176 53.0654 144.216 53.6734 143.032V131.608C52.6814 130.968 51.7054 130.52 50.7454 130.264C49.8174 130.008 48.8414 129.88 47.8174 129.88C46.9854 129.88 46.2014 130.008 45.4654 130.264C44.7614 130.52 44.1214 130.904 43.5454 131.416C43.0014 131.928 42.5214 132.568 42.1054 133.336C41.7214 134.104 41.4174 135 41.1934 136.024C41.0014 137.048 40.9054 138.216 40.9054 139.528C40.9054 141.288 41.1134 142.808 41.5294 144.088C41.9454 145.336 42.5694 146.296 43.4014 146.968C44.2654 147.64 45.3374 147.976 46.6174 147.976ZM60.1969 151.816C59.7489 151.816 59.4289 151.624 59.2369 151.24C59.0129 150.888 58.9329 150.488 58.9969 150.04C59.0289 149.56 59.2209 149.144 59.5729 148.792C59.9249 148.408 60.4369 148.216 61.1089 148.216C62.1649 148.216 63.1409 148.04 64.0369 147.688C64.9329 147.336 65.7489 146.84 66.4849 146.2C67.2209 145.56 67.8609 144.808 68.4049 143.944C68.9809 143.08 69.4609 142.152 69.8449 141.16C70.0369 140.68 70.3089 140.472 70.6609 140.536C71.0449 140.568 71.3649 140.744 71.6209 141.064C71.9089 141.384 72.0049 141.72 71.9089 142.072C71.4289 143.608 70.8049 144.984 70.0369 146.2C69.3009 147.384 68.4369 148.408 67.4449 149.272C66.4849 150.104 65.3969 150.728 64.1809 151.144C62.9649 151.592 61.6369 151.816 60.1969 151.816ZM77.9089 151.816C76.0529 151.816 74.5009 151.496 73.2529 150.856C72.0049 150.184 71.0609 149.208 70.4209 147.928C69.8129 146.616 69.5089 144.984 69.5089 143.032V127.528C69.5089 127.112 69.6689 126.808 69.9889 126.616C70.3409 126.392 70.8529 126.28 71.5249 126.28C72.2289 126.28 72.7569 126.392 73.1089 126.616C73.4609 126.808 73.6369 127.112 73.6369 127.528V143.032C73.6369 144.152 73.8129 145.096 74.1649 145.864C74.5169 146.632 75.0449 147.208 75.7489 147.592C76.4849 147.976 77.3809 148.168 78.4369 148.168C79.3329 148.168 80.1649 148.024 80.9329 147.736C81.7009 147.448 82.3889 147.064 82.9969 146.584C83.6369 146.072 84.1969 145.464 84.6769 144.76C85.1569 144.056 85.5569 143.304 85.8769 142.504V127.528C85.8769 127.112 86.0369 126.808 86.3569 126.616C86.7089 126.392 87.2369 126.28 87.9409 126.28C88.6129 126.28 89.1249 126.392 89.4769 126.616C89.8289 126.808 90.0049 127.112 90.0049 127.528V144.28C90.0049 145.72 90.2129 146.744 90.6289 147.352C91.0769 147.928 91.8929 148.216 93.0769 148.216C93.5249 148.216 93.8609 148.408 94.0849 148.792C94.3089 149.144 94.3889 149.56 94.3249 150.04C94.2929 150.488 94.1009 150.888 93.7489 151.24C93.3969 151.624 92.8689 151.816 92.1649 151.816C91.3329 151.816 90.5809 151.72 89.9089 151.528C89.2689 151.368 88.6929 151.112 88.1809 150.76C87.7009 150.376 87.2849 149.912 86.9329 149.368C86.6129 148.824 86.3729 148.184 86.2129 147.448L86.1169 146.968C85.6689 147.736 85.1569 148.424 84.5809 149.032C84.0369 149.608 83.4129 150.104 82.7089 150.52C82.0369 150.936 81.3009 151.256 80.5009 151.48C79.7009 151.704 78.8369 151.816 77.9089 151.816ZM92.4 151.816C91.952 151.816 91.632 151.624 91.44 151.24C91.216 150.888 91.136 150.488 91.2 150.04C91.232 149.56 91.424 149.144 91.776 148.792C92.128 148.408 92.64 148.216 93.312 148.216C94.272 148.216 95.136 148.088 95.904 147.832C96.64 147.576 97.28 147.192 97.824 146.68C98.368 146.168 98.8 145.528 99.12 144.76C99.472 143.992 99.712 143.096 99.84 142.072C99.904 141.592 100.144 141.288 100.56 141.16C100.976 141 101.376 141 101.76 141.16C102.176 141.288 102.352 141.592 102.288 142.072C102.16 143.768 101.824 145.24 101.28 146.488C100.736 147.704 100.032 148.712 99.168 149.512C98.304 150.28 97.296 150.856 96.144 151.24C95.024 151.624 93.776 151.816 92.4 151.816ZM113.088 151.816C108.96 151.816 105.68 150.696 103.248 148.456C100.816 146.216 99.6 143.064 99.6 139C99.6 137.112 99.872 135.384 100.416 133.816C100.992 132.248 101.776 130.888 102.768 129.736C103.76 128.584 104.928 127.688 106.272 127.048C107.648 126.408 109.152 126.088 110.784 126.088C112.256 126.088 113.76 126.408 115.296 127.048C116.832 127.688 118.176 128.712 119.328 130.12C119.68 130.568 119.808 130.952 119.712 131.272C119.616 131.56 119.392 131.896 119.04 132.28C118.624 132.696 118.24 132.952 117.888 133.048C117.536 133.144 117.168 133.032 116.784 132.712C115.888 131.976 115.008 131.336 114.144 130.792C113.312 130.216 112.192 129.928 110.784 129.928C109.728 129.928 108.768 130.136 107.904 130.552C107.04 130.968 106.304 131.576 105.696 132.376C105.12 133.176 104.672 134.136 104.352 135.256C104.032 136.344 103.872 137.592 103.872 139C103.872 140.92 104.24 142.568 104.976 143.944C105.744 145.32 106.816 146.376 108.192 147.112C109.6 147.848 111.232 148.216 113.088 148.216C113.536 148.216 113.872 148.408 114.096 148.792C114.352 149.144 114.48 149.56 114.48 150.04C114.48 150.488 114.368 150.888 114.144 151.24C113.92 151.624 113.568 151.816 113.088 151.816ZM112.999 151.816C112.711 151.816 112.503 151.624 112.375 151.24C112.215 150.888 112.135 150.488 112.135 150.04C112.135 149.56 112.215 149.144 112.375 148.792C112.535 148.408 112.759 148.216 113.047 148.216C114.807 148.216 116.471 147.88 118.039 147.208C119.575 146.536 120.967 145.544 122.216 144.232C123.464 142.92 124.504 141.288 125.336 139.336C125.496 139.048 125.768 138.952 126.152 139.048C126.568 139.112 126.936 139.288 127.256 139.576C127.608 139.864 127.72 140.168 127.592 140.488C126.664 143.016 125.432 145.128 123.896 146.824C122.392 148.488 120.711 149.736 118.855 150.568C116.967 151.4 115.015 151.816 112.999 151.816ZM134.648 151.816C132.824 151.816 131.208 151.384 129.8 150.52C128.392 149.624 127.288 148.28 126.488 146.488C125.688 144.696 125.288 142.44 125.288 139.72C125.288 138.056 125.448 136.52 125.768 135.112C126.088 133.704 126.536 132.44 127.112 131.32C127.72 130.2 128.456 129.256 129.32 128.488C130.216 127.72 131.224 127.128 132.344 126.712C133.464 126.296 134.696 126.088 136.04 126.088C137.352 126.088 138.696 126.344 140.072 126.856C141.448 127.368 142.68 128.04 143.768 128.872V132.472C142.488 131.448 141.256 130.76 140.072 130.408C138.92 130.056 137.72 129.88 136.472 129.88C135.64 129.88 134.856 130.008 134.12 130.264C133.416 130.52 132.776 130.904 132.2 131.416C131.656 131.928 131.176 132.568 130.76 133.336C130.376 134.104 130.072 135 129.848 136.024C129.656 137.048 129.56 138.216 129.56 139.528C129.56 141.288 129.768 142.808 130.184 144.088C130.6 145.336 131.224 146.296 132.056 146.968C132.92 147.64 133.992 147.976 135.272 147.976C136.424 147.976 137.496 147.72 138.488 147.208C139.512 146.664 140.44 145.816 141.272 144.664C142.136 143.48 142.872 141.928 143.48 140.008L144.248 142.936C143.512 145.4 142.6 147.272 141.512 148.552C140.456 149.832 139.32 150.696 138.104 151.144C136.92 151.592 135.768 151.816 134.648 151.816ZM148.568 151.816C147.48 151.816 146.536 151.656 145.736 151.336C144.936 151.048 144.28 150.6 143.768 149.992C143.256 149.352 142.872 148.568 142.616 147.64C142.392 146.68 142.28 145.56 142.28 144.28V127.672C142.28 127.192 142.456 126.84 142.808 126.616C143.16 126.392 143.688 126.28 144.392 126.28C145.064 126.28 145.56 126.392 145.88 126.616C146.232 126.808 146.408 127.128 146.408 127.576V144.28C146.408 145.72 146.616 146.744 147.031 147.352C147.48 147.928 148.296 148.216 149.48 148.216C149.768 148.216 149.976 148.408 150.104 148.792C150.264 149.144 150.312 149.56 150.248 150.04C150.216 150.488 150.056 150.888 149.768 151.24C149.512 151.624 149.112 151.816 148.568 151.816ZM148.556 151.816C148.108 151.816 147.788 151.624 147.596 151.24C147.372 150.888 147.292 150.488 147.356 150.04C147.388 149.56 147.58 149.144 147.932 148.792C148.284 148.408 148.796 148.216 149.468 148.216C150.556 148.216 151.548 148.024 152.444 147.64C153.372 147.256 154.204 146.728 154.94 146.056C155.676 145.384 156.332 144.584 156.908 143.656C157.516 142.728 158.028 141.72 158.444 140.632C158.636 140.152 158.924 139.944 159.308 140.008C159.692 140.04 160.012 140.2 160.268 140.488C160.556 140.776 160.652 141.096 160.556 141.448C160.044 143.08 159.404 144.536 158.636 145.816C157.868 147.096 156.972 148.184 155.948 149.08C154.956 149.976 153.836 150.648 152.588 151.096C151.372 151.576 150.028 151.816 148.556 151.816ZM167.18 151.816C165.644 151.816 164.3 151.592 163.148 151.144C161.996 150.696 161.02 150.024 160.22 149.128C159.452 148.232 158.86 147.128 158.444 145.816C158.06 144.504 157.868 142.984 157.868 141.256V130.84H154.124C153.644 130.84 153.308 130.696 153.116 130.408C152.924 130.12 152.828 129.624 152.828 128.92C152.828 128.184 152.924 127.688 153.116 127.432C153.308 127.144 153.644 127 154.124 127H157.868V117.208C157.868 116.792 158.028 116.488 158.348 116.296C158.7 116.072 159.212 115.96 159.884 115.96C160.588 115.96 161.116 116.072 161.468 116.296C161.82 116.488 161.996 116.792 161.996 117.208V127H168.044C168.524 127 168.86 127.144 169.052 127.432C169.276 127.688 169.388 128.184 169.388 128.92C169.388 129.624 169.276 130.12 169.052 130.408C168.86 130.696 168.524 130.84 168.044 130.84H161.996V141.256C161.996 142.408 162.124 143.416 162.38 144.28C162.636 145.144 163.02 145.864 163.532 146.44C164.044 147.016 164.668 147.464 165.404 147.784C166.172 148.072 167.052 148.216 168.044 148.216C168.492 148.216 168.828 148.408 169.052 148.792C169.276 149.144 169.356 149.56 169.292 150.04C169.26 150.488 169.068 150.888 168.716 151.24C168.364 151.624 167.852 151.816 167.18 151.816ZM167.166 151.816C166.718 151.816 166.398 151.624 166.206 151.24C165.982 150.888 165.902 150.488 165.966 150.04C165.998 149.56 166.19 149.144 166.542 148.792C166.894 148.408 167.406 148.216 168.078 148.216C169.134 148.216 170.11 148.04 171.006 147.688C171.902 147.336 172.718 146.84 173.454 146.2C174.19 145.56 174.83 144.808 175.374 143.944C175.95 143.08 176.43 142.152 176.814 141.16C177.006 140.68 177.278 140.472 177.63 140.536C178.014 140.568 178.334 140.744 178.59 141.064C178.878 141.384 178.974 141.72 178.878 142.072C178.398 143.608 177.774 144.984 177.006 146.2C176.27 147.384 175.406 148.408 174.414 149.272C173.454 150.104 172.366 150.728 171.15 151.144C169.934 151.592 168.606 151.816 167.166 151.816ZM182.766 151.816C181.678 151.816 180.734 151.656 179.934 151.336C179.134 151.048 178.478 150.6 177.966 149.992C177.454 149.352 177.07 148.568 176.814 147.64C176.59 146.68 176.478 145.56 176.478 144.28V127.528C176.478 127.112 176.638 126.808 176.958 126.616C177.31 126.392 177.822 126.28 178.494 126.28C179.198 126.28 179.726 126.392 180.078 126.616C180.43 126.808 180.606 127.112 180.606 127.528V144.28C180.606 145.72 180.814 146.744 181.23 147.352C181.678 147.928 182.494 148.216 183.678 148.216C184.126 148.216 184.462 148.408 184.686 148.792C184.91 149.144 184.99 149.56 184.926 150.04C184.894 150.488 184.702 150.888 184.35 151.24C183.998 151.624 183.47 151.816 182.766 151.816ZM178.59 118.888C177.694 118.888 177.006 118.648 176.526 118.168C176.078 117.656 175.854 116.904 175.854 115.912C175.854 114.888 176.078 114.12 176.526 113.608C177.006 113.096 177.694 112.84 178.59 112.84C179.454 112.84 180.11 113.096 180.558 113.608C181.006 114.12 181.23 114.888 181.23 115.912C181.262 116.904 181.038 117.656 180.558 118.168C180.11 118.648 179.454 118.888 178.59 118.888ZM182.775 151.816C182.327 151.816 182.007 151.624 181.815 151.24C181.591 150.888 181.511 150.488 181.575 150.04C181.607 149.56 181.799 149.144 182.151 148.792C182.503 148.408 183.015 148.216 183.687 148.216C184.647 148.216 185.511 148.088 186.279 147.832C187.015 147.576 187.655 147.192 188.199 146.68C188.743 146.168 189.175 145.528 189.495 144.76C189.847 143.992 190.087 143.096 190.215 142.072C190.279 141.592 190.519 141.288 190.935 141.16C191.351 141 191.751 141 192.135 141.16C192.551 141.288 192.727 141.592 192.663 142.072C192.535 143.768 192.199 145.24 191.655 146.488C191.111 147.704 190.407 148.712 189.543 149.512C188.679 150.28 187.671 150.856 186.519 151.24C185.399 151.624 184.151 151.816 182.775 151.816ZM201.159 151.912C199.015 151.912 197.095 151.352 195.399 150.232C193.735 149.112 192.423 147.592 191.463 145.672C190.503 143.72 190.023 141.496 190.023 139C190.023 137.112 190.295 135.384 190.839 133.816C191.383 132.248 192.151 130.888 193.143 129.736C194.167 128.584 195.351 127.688 196.695 127.048C198.039 126.408 199.527 126.088 201.159 126.088C203.303 126.088 205.207 126.648 206.871 127.768C208.535 128.856 209.847 130.376 210.807 132.328C211.767 134.28 212.247 136.504 212.247 139C212.247 140.504 212.071 141.912 211.719 143.224C211.367 144.536 210.855 145.72 210.183 146.776C209.543 147.832 208.759 148.744 207.831 149.512C206.935 150.28 205.911 150.872 204.759 151.288C203.639 151.704 202.439 151.912 201.159 151.912ZM201.159 148.072C202.215 148.072 203.159 147.864 203.991 147.448C204.855 147.032 205.575 146.424 206.151 145.624C206.759 144.824 207.223 143.864 207.543 142.744C207.863 141.624 208.023 140.376 208.023 139C208.023 137.144 207.751 135.544 207.207 134.2C206.663 132.824 205.879 131.768 204.855 131.032C203.831 130.296 202.599 129.928 201.159 129.928C200.103 129.928 199.143 130.136 198.279 130.552C197.415 130.968 196.679 131.576 196.071 132.376C195.495 133.176 195.047 134.136 194.727 135.256C194.407 136.344 194.247 137.592 194.247 139C194.247 140.856 194.519 142.472 195.063 143.848C195.639 145.192 196.439 146.232 197.463 146.968C198.487 147.704 199.719 148.072 201.159 148.072ZM211.171 132.808C210.819 132.808 210.387 132.728 209.875 132.568C209.331 132.408 208.771 132.184 208.195 131.896C207.619 131.608 207.043 131.288 206.467 130.936C205.955 130.616 205.635 130.264 205.507 129.88C205.379 129.464 205.379 129.08 205.507 128.728C205.635 128.376 205.827 128.12 206.083 127.96C206.339 127.768 206.579 127.752 206.803 127.912C207.763 128.424 208.595 128.808 209.299 129.064C210.003 129.288 210.611 129.4 211.123 129.4C211.891 129.4 212.547 129.24 213.091 128.92C213.603 128.6 214.115 128.248 214.627 127.864C215.107 127.448 215.635 127.08 216.211 126.76C216.787 126.44 217.507 126.28 218.371 126.28C218.755 126.28 219.043 126.472 219.235 126.856C219.427 127.208 219.523 127.624 219.523 128.104C219.523 128.552 219.411 128.968 219.187 129.352C218.995 129.704 218.675 129.88 218.227 129.88C217.587 129.88 217.027 130.024 216.547 130.312C216.067 130.6 215.587 130.952 215.107 131.368C214.595 131.752 214.035 132.088 213.427 132.376C212.819 132.664 212.067 132.808 211.171 132.808ZM222.931 151.72C222.259 151.72 221.747 151.608 221.395 151.384C221.075 151.192 220.915 150.888 220.915 150.472V133.288C220.915 131.944 220.723 131.048 220.339 130.6C219.955 130.12 219.267 129.88 218.275 129.88C217.795 129.88 217.443 129.704 217.219 129.352C216.995 128.968 216.883 128.552 216.883 128.104C216.883 127.624 217.011 127.208 217.267 126.856C217.523 126.472 217.891 126.28 218.371 126.28C219.235 126.28 220.003 126.376 220.675 126.568C221.379 126.728 221.987 127 222.499 127.384C223.043 127.736 223.491 128.2 223.843 128.776C224.195 129.32 224.467 129.976 224.659 130.744L224.755 131.128C225.203 130.36 225.731 129.672 226.339 129.064C226.947 128.456 227.603 127.928 228.307 127.48C229.043 127.032 229.811 126.696 230.611 126.472C231.443 126.216 232.307 126.088 233.203 126.088C234.867 126.088 236.323 126.392 237.571 127C238.851 127.608 239.843 128.568 240.547 129.88C241.283 131.16 241.651 132.856 241.651 134.968V146.392C241.651 146.808 241.715 147.16 241.843 147.448C241.971 147.704 242.147 147.896 242.371 148.024C242.627 148.152 242.899 148.216 243.187 148.216C243.475 148.216 243.731 148.168 243.955 148.072C244.211 147.976 244.451 147.848 244.675 147.688C244.899 147.496 245.123 147.32 245.347 147.16C245.603 146.968 245.891 146.936 246.211 147.064C246.531 147.192 246.803 147.384 247.027 147.64C247.283 147.96 247.411 148.28 247.411 148.6C247.443 148.92 247.363 149.224 247.171 149.512C246.819 149.992 246.371 150.408 245.827 150.76C245.315 151.112 244.755 151.368 244.147 151.528C243.539 151.72 242.915 151.816 242.275 151.816C241.443 151.816 240.723 151.704 240.115 151.48C239.507 151.256 239.011 150.936 238.627 150.52C238.243 150.104 237.955 149.592 237.763 148.984C237.603 148.344 237.523 147.64 237.523 146.872V135.352C237.523 134.232 237.347 133.272 236.995 132.472C236.675 131.64 236.163 131.016 235.459 130.6C234.755 130.152 233.811 129.928 232.627 129.928C231.955 129.928 231.251 130.024 230.515 130.216C229.811 130.408 229.123 130.728 228.451 131.176C227.811 131.592 227.187 132.152 226.579 132.856C226.003 133.56 225.491 134.424 225.043 135.448V150.472C225.043 150.888 224.867 151.192 224.515 151.384C224.163 151.608 223.635 151.72 222.931 151.72ZM270.341 151C269.637 151 269.109 150.84 268.757 150.52C268.405 150.2 268.229 149.72 268.229 149.08V107.32C268.229 106.872 268.405 106.552 268.757 106.36C269.109 106.136 269.637 106.024 270.341 106.024H292.085C292.565 106.024 292.901 106.168 293.093 106.456C293.317 106.712 293.429 107.208 293.429 107.944C293.429 108.648 293.317 109.144 293.093 109.432C292.901 109.72 292.565 109.864 292.085 109.864H272.453V125.272H288.917C289.397 125.272 289.733 125.416 289.925 125.704C290.149 125.96 290.261 126.456 290.261 127.192C290.261 127.896 290.149 128.392 289.925 128.68C289.733 128.968 289.397 129.112 288.917 129.112H272.453V147.16H292.085C292.565 147.16 292.901 147.304 293.093 147.592C293.317 147.848 293.429 148.344 293.429 149.08C293.429 149.784 293.317 150.28 293.093 150.568C292.901 150.856 292.565 151 292.085 151H270.341ZM299.15 172.936C298.286 172.936 297.454 172.792 296.654 172.504C295.886 172.248 295.198 171.864 294.59 171.352C293.982 170.872 293.502 170.296 293.15 169.624C292.926 169.176 292.91 168.76 293.102 168.376C293.262 167.992 293.598 167.64 294.11 167.32C294.59 167.032 294.99 166.888 295.31 166.888C295.63 166.92 295.966 167.128 296.318 167.512C296.83 168.056 297.342 168.488 297.854 168.808C298.366 169.16 298.926 169.336 299.534 169.336C300.366 169.336 300.926 169.016 301.214 168.376C301.502 167.768 301.646 167 301.646 166.072V130.84H297.566C297.182 130.84 296.878 130.68 296.654 130.36C296.43 130.04 296.318 129.56 296.318 128.92C296.318 127.64 296.718 127 297.518 127H301.646V113.128C301.646 111.208 302.014 109.656 302.75 108.472C303.486 107.288 304.414 106.424 305.534 105.88C306.686 105.336 307.886 105.064 309.134 105.064C310.702 105.064 312.03 105.352 313.118 105.928C314.206 106.504 315.102 107.16 315.806 107.896C316.158 108.248 316.286 108.616 316.19 109C316.094 109.352 315.87 109.72 315.518 110.104C315.102 110.52 314.718 110.76 314.366 110.824C314.014 110.888 313.63 110.792 313.214 110.536C312.51 110.024 311.886 109.624 311.342 109.336C310.798 109.048 310.11 108.904 309.278 108.904C308.286 108.904 307.454 109.208 306.782 109.816C306.11 110.424 305.774 111.624 305.774 113.416V127H311.966C312.734 127 313.118 127.64 313.118 128.92C313.118 130.2 312.734 130.84 311.966 130.84H305.774V166.072C305.774 167.8 305.47 169.16 304.862 170.152C304.286 171.144 303.486 171.848 302.462 172.264C301.47 172.712 300.366 172.936 299.15 172.936ZM316.728 172.936C315.864 172.936 315.032 172.792 314.232 172.504C313.464 172.248 312.776 171.864 312.168 171.352C311.56 170.872 311.08 170.296 310.728 169.624C310.504 169.176 310.488 168.76 310.68 168.376C310.84 167.992 311.176 167.64 311.688 167.32C312.168 167.032 312.568 166.888 312.888 166.888C313.208 166.92 313.544 167.128 313.896 167.512C314.408 168.056 314.92 168.488 315.432 168.808C315.944 169.16 316.504 169.336 317.112 169.336C317.944 169.336 318.504 169.016 318.792 168.376C319.08 167.768 319.224 167 319.224 166.072V130.84H315.144C314.76 130.84 314.456 130.68 314.232 130.36C314.008 130.04 313.896 129.56 313.896 128.92C313.896 127.64 314.296 127 315.096 127H319.224V113.128C319.224 111.208 319.592 109.656 320.328 108.472C321.064 107.288 321.992 106.424 323.112 105.88C324.264 105.336 325.464 105.064 326.712 105.064C328.28 105.064 329.608 105.352 330.696 105.928C331.784 106.504 332.68 107.16 333.384 107.896C333.736 108.248 333.864 108.616 333.768 109C333.672 109.352 333.448 109.72 333.096 110.104C332.68 110.52 332.296 110.76 331.944 110.824C331.592 110.888 331.208 110.792 330.792 110.536C330.088 110.024 329.464 109.624 328.92 109.336C328.376 109.048 327.688 108.904 326.856 108.904C325.864 108.904 325.032 109.208 324.36 109.816C323.688 110.424 323.352 111.624 323.352 113.416V127H329.544C330.312 127 330.696 127.64 330.696 128.92C330.696 130.2 330.312 130.84 329.544 130.84H323.352V166.072C323.352 167.8 323.048 169.16 322.44 170.152C321.864 171.144 321.064 171.848 320.04 172.264C319.048 172.712 317.944 172.936 316.728 172.936ZM345.939 151.816C343.123 151.816 340.723 151.304 338.739 150.28C336.787 149.256 335.299 147.8 334.275 145.912C333.251 144.024 332.739 141.816 332.739 139.288C332.739 137.368 333.011 135.608 333.555 134.008C334.131 132.408 334.931 131.016 335.955 129.832C336.979 128.648 338.195 127.736 339.603 127.096C341.011 126.424 342.547 126.088 344.211 126.088C345.651 126.088 346.915 126.328 348.003 126.808C349.123 127.256 349.987 127.96 350.595 128.92C351.203 129.848 351.507 131.032 351.507 132.472C351.507 133.688 351.267 134.792 350.787 135.784C350.307 136.776 349.619 137.656 348.723 138.424C347.859 139.16 346.819 139.784 345.603 140.296C344.387 140.776 343.027 141.144 341.523 141.4C340.019 141.656 338.419 141.8 336.723 141.832V138.472C337.683 138.472 338.659 138.408 339.651 138.28C340.643 138.12 341.587 137.896 342.483 137.608C343.411 137.32 344.227 136.952 344.931 136.504C345.667 136.024 346.243 135.48 346.659 134.872C347.075 134.264 347.283 133.576 347.283 132.808C347.283 131.784 346.979 131.048 346.371 130.6C345.763 130.152 344.947 129.928 343.923 129.928C342.963 129.928 342.067 130.152 341.235 130.6C340.403 131.016 339.667 131.608 339.027 132.376C338.419 133.144 337.923 134.056 337.539 135.112C337.187 136.168 337.011 137.32 337.011 138.568C337.011 140.712 337.379 142.52 338.115 143.992C338.883 145.432 339.939 146.52 341.283 147.256C342.627 147.96 344.179 148.312 345.939 148.312C346.419 148.312 346.771 148.488 346.995 148.84C347.219 149.192 347.331 149.608 347.331 150.088C347.331 150.536 347.219 150.936 346.995 151.288C346.771 151.64 346.419 151.816 345.939 151.816ZM346.049 151.816C345.601 151.816 345.265 151.64 345.041 151.288C344.817 150.936 344.705 150.536 344.705 150.088C344.705 149.608 344.817 149.192 345.041 148.84C345.265 148.488 345.601 148.312 346.049 148.312C348.033 148.312 349.761 147.928 351.233 147.16C352.705 146.392 353.921 145.368 354.881 144.088C355.841 142.776 356.561 141.32 357.041 139.72C357.169 139.336 357.425 139.144 357.809 139.144C358.193 139.112 358.545 139.224 358.865 139.48C359.217 139.704 359.345 140.008 359.249 140.392C358.769 142.664 357.953 144.664 356.801 146.392C355.649 148.088 354.177 149.416 352.385 150.376C350.593 151.336 348.481 151.816 346.049 151.816ZM370.385 151.816C366.257 151.816 362.977 150.696 360.545 148.456C358.113 146.216 356.897 143.064 356.897 139C356.897 137.112 357.169 135.384 357.713 133.816C358.289 132.248 359.073 130.888 360.065 129.736C361.057 128.584 362.225 127.688 363.569 127.048C364.945 126.408 366.449 126.088 368.081 126.088C369.553 126.088 371.057 126.408 372.593 127.048C374.129 127.688 375.473 128.712 376.625 130.12C376.977 130.568 377.105 130.952 377.009 131.272C376.913 131.56 376.689 131.896 376.337 132.28C375.921 132.696 375.537 132.952 375.185 133.048C374.833 133.144 374.465 133.032 374.081 132.712C373.185 131.976 372.305 131.336 371.441 130.792C370.609 130.216 369.489 129.928 368.081 129.928C367.025 129.928 366.065 130.136 365.201 130.552C364.337 130.968 363.601 131.576 362.993 132.376C362.417 133.176 361.969 134.136 361.649 135.256C361.329 136.344 361.169 137.592 361.169 139C361.169 140.92 361.537 142.568 362.273 143.944C363.041 145.32 364.113 146.376 365.489 147.112C366.897 147.848 368.529 148.216 370.385 148.216C370.833 148.216 371.169 148.408 371.393 148.792C371.649 149.144 371.777 149.56 371.777 150.04C371.777 150.488 371.665 150.888 371.441 151.24C371.217 151.624 370.865 151.816 370.385 151.816ZM370.296 151.816C370.008 151.816 369.8 151.624 369.672 151.24C369.512 150.888 369.432 150.488 369.432 150.04C369.432 149.56 369.512 149.144 369.672 148.792C369.832 148.408 370.056 148.216 370.344 148.216C372.328 148.216 374.232 147.896 376.056 147.256C377.848 146.584 379.496 145.608 381 144.328C382.536 143.016 383.88 141.432 385.032 139.576C385.192 139.32 385.448 139.304 385.8 139.528C386.184 139.752 386.504 140.056 386.76 140.44C387.048 140.792 387.112 141.096 386.952 141.352C385.64 143.656 384.072 145.592 382.248 147.16C380.456 148.696 378.536 149.864 376.488 150.664C374.44 151.432 372.376 151.816 370.296 151.816ZM390.648 151.816C389.304 151.816 388.184 151.56 387.288 151.048C386.424 150.568 385.768 149.88 385.32 148.984C384.904 148.056 384.696 146.952 384.696 145.672V130.84H380.952C380.472 130.84 380.136 130.696 379.944 130.408C379.752 130.12 379.656 129.624 379.656 128.92C379.656 128.184 379.752 127.688 379.944 127.432C380.136 127.144 380.472 127 380.952 127H384.696V117.208C384.696 116.792 384.856 116.488 385.176 116.296C385.528 116.072 386.04 115.96 386.712 115.96C387.416 115.96 387.944 116.072 388.296 116.296C388.648 116.488 388.824 116.792 388.824 117.208V127H394.872C395.352 127 395.688 127.144 395.88 127.432C396.104 127.688 396.216 128.184 396.216 128.92C396.216 129.624 396.104 130.12 395.88 130.408C395.688 130.696 395.352 130.84 394.872 130.84H388.824V145.192C388.824 146.28 388.968 147.064 389.256 147.544C389.576 147.992 390.136 148.216 390.936 148.216C391.672 148.216 392.296 148.04 392.808 147.688C393.352 147.336 393.912 146.904 394.488 146.392C394.872 146.04 395.224 145.928 395.544 146.056C395.896 146.152 396.216 146.344 396.504 146.632C396.856 146.952 397.032 147.288 397.032 147.64C397.064 147.96 396.984 148.264 396.792 148.552C396.248 149.352 395.64 149.992 394.968 150.472C394.296 150.952 393.592 151.288 392.856 151.48C392.12 151.704 391.384 151.816 390.648 151.816Z" fill="#330022"/>
</svg>
